<?xml version="1.0" encoding="utf-8"?>
<!-- Generator: Adobe Illustrator 26.4.1, SVG Export Plug-In . SVG Version: 6.00 Build 0)  -->
<svg version="1.1" id="Layer_1" xmlns="http://www.w3.org/2000/svg" xmlns:xlink="http://www.w3.org/1999/xlink" x="0px" y="0px"
	 width="24px" height="24px" viewBox="0 0 24 24" style="enable-background:new 0 0 24 24;" xml:space="preserve">
<style type="text/css">
	.st0{opacity:0.9;}
</style>
<path class="st0" d="M21,22H3c-0.8,0-1.6-0.3-2.1-0.9C0.3,20.6,0,19.8,0,19V8c0-0.8,0.3-1.6,0.9-2.1C1.4,5.3,2.2,5,3,5h3.5l1.7-2.6
	C8.4,2.2,8.7,2,9,2h6c0.3,0,0.6,0.2,0.8,0.4L17.5,5H21c0.8,0,1.6,0.3,2.1,0.9C23.7,6.4,24,7.2,24,8v11c0,0.8-0.3,1.6-0.9,2.1
	S21.8,22,21,22z M3,7C2.7,7,2.5,7.1,2.3,7.3C2.1,7.5,2,7.7,2,8v11c0,0.3,0.1,0.5,0.3,0.7C2.5,19.9,2.7,20,3,20h18
	c0.3,0,0.5-0.1,0.7-0.3S22,19.3,22,19V8c0-0.3-0.1-0.5-0.3-0.7C21.5,7.1,21.3,7,21,7h-4c-0.3,0-0.6-0.2-0.8-0.4L14.5,4H9.5L7.8,6.6
	C7.6,6.8,7.3,7,7,7H3z"/>
<path class="st0" d="M12,18c-2.8,0-5-2.2-5-5s2.2-5,5-5s5,2.2,5,5S14.8,18,12,18z M12,10c-1.7,0-3,1.3-3,3s1.3,3,3,3s3-1.3,3-3
	S13.7,10,12,10z"/>
</svg>
