<svg width="229" height="45" viewBox="0 0 229 45" fill="none" xmlns="http://www.w3.org/2000/svg">
<g clip-path="url(#clip0_906_62)">
<path d="M61.4772 26.0841L66.9408 25.7418C67.0591 26.6292 67.2999 27.3052 67.6633 27.77C68.2549 28.5222 69.1 28.8982 70.1986 28.8982C71.0184 28.8982 71.648 28.7081 72.0874 28.3278C72.5353 27.9391 72.7593 27.4912 72.7593 26.9841C72.7593 26.5024 72.548 26.0714 72.1255 25.6911C71.7029 25.3108 70.7226 24.9516 69.1845 24.6136C66.6661 24.0474 64.8703 23.2952 63.797 22.3572C62.7153 21.4191 62.1744 20.2233 62.1744 18.7697C62.1744 17.8147 62.449 16.9147 62.9984 16.0696C63.5561 15.216 64.3886 14.5484 65.4956 14.0667C66.6112 13.5765 68.1366 13.3315 70.0719 13.3315C72.4466 13.3315 74.2551 13.7751 75.4974 14.6625C76.7482 15.5414 77.4919 16.9443 77.7285 18.8711L72.3156 19.188C72.1719 18.3514 71.8677 17.7429 71.4029 17.3626C70.9466 16.9823 70.3127 16.7922 69.5014 16.7922C68.8338 16.7922 68.331 16.9358 67.9929 17.2232C67.6549 17.502 67.4859 17.8443 67.4859 18.25C67.4859 18.5457 67.6253 18.812 67.9042 19.0486C68.1746 19.2937 68.8169 19.5218 69.831 19.7331C72.341 20.274 74.1368 20.8233 75.2185 21.3811C76.3087 21.9304 77.0989 22.6149 77.5891 23.4347C78.0877 24.2544 78.337 25.1713 78.337 26.1855C78.337 27.3771 78.0074 28.4757 77.3482 29.4814C76.689 30.487 75.7679 31.2519 74.5847 31.7758C73.4016 32.2913 71.91 32.5491 70.1099 32.5491C66.9492 32.5491 64.7604 31.9406 63.5435 30.7237C62.3265 29.5067 61.6378 27.9602 61.4772 26.0841ZM81.2272 13.6484H96.6165V17.6161H86.9824V20.5698H95.9193V24.3601H86.9824V28.0236H96.8954V32.2322H81.2272V13.6484ZM109.344 25.5009V21.6346H118.217V29.5574C116.519 30.7152 115.014 31.5054 113.704 31.9279C112.403 32.342 110.856 32.5491 109.065 32.5491C106.859 32.5491 105.059 32.173 103.665 31.4209C102.279 30.6687 101.201 29.549 100.432 28.0616C99.6716 26.5742 99.2913 24.8671 99.2913 22.9403C99.2913 20.912 99.7096 19.15 100.546 17.6542C101.383 16.1499 102.608 15.009 104.222 14.2315C105.482 13.6315 107.176 13.3315 109.306 13.3315C111.359 13.3315 112.893 13.5174 113.907 13.8892C114.93 14.2611 115.775 14.84 116.443 15.6259C117.119 16.4034 117.626 17.3922 117.964 18.5922L112.424 19.581C112.196 18.8796 111.807 18.3429 111.258 17.9711C110.717 17.5992 110.024 17.4133 109.179 17.4133C107.92 17.4133 106.914 17.8528 106.162 18.7317C105.418 19.6021 105.046 20.9839 105.046 22.8769C105.046 24.8882 105.422 26.3249 106.175 27.1869C106.935 28.0489 107.992 28.4799 109.344 28.4799C109.986 28.4799 110.599 28.387 111.182 28.201C111.765 28.0151 112.433 27.6982 113.185 27.2503V25.5009H109.344ZM121.615 13.6484H137.004V17.6161H127.37V20.5698H136.307V24.3601H127.37V28.0236H137.283V32.2322H121.615V13.6484ZM140.389 13.6484H146.131V27.6559H155.093V32.2322H140.389V13.6484ZM162.534 32.2322V15.8414H156.412V13.6484H171.142V15.8414H164.994V32.2322H162.534ZM173.728 32.2322V13.6484H187.165V15.8414H176.187V21.5332H186.468V23.7135H176.187V30.0391H187.596V32.2322H173.728ZM188.952 32.2322L196.089 13.6484H198.739L206.345 32.2322H203.543L201.375 26.6038H193.605L191.564 32.2322H188.952ZM194.315 24.6009H200.615L198.675 19.4542C198.084 17.8908 197.644 16.6062 197.357 15.6006C197.12 16.7922 196.786 17.9753 196.355 19.15L194.315 24.6009ZM208.233 32.2322V13.6484H211.935L216.334 26.8066C216.739 28.032 217.035 28.949 217.221 29.5574C217.432 28.8813 217.762 27.8884 218.21 26.5784L222.659 13.6484H225.968V32.2322H223.597V16.6781L218.197 32.2322H215.979L210.604 16.4119V32.2322H208.233Z" fill="white"/>
<path fill-rule="evenodd" clip-rule="evenodd" d="M22.4991 0C34.9261 0 44.9991 10.0731 44.9991 22.5C44.9991 34.9261 34.9261 45 22.4991 45C10.0731 45 0 34.9261 0 22.5C0 10.0731 10.0731 0 22.4991 0Z" fill="white"/>
<path fill-rule="evenodd" clip-rule="evenodd" d="M35.5677 19.478L20.7627 28.298V12.0288L35.5677 19.478Z" fill="#C4132F"/>
<path fill-rule="evenodd" clip-rule="evenodd" d="M17.3066 8.65295H20.7682V38.076H17.3066V8.65295Z" fill="#C4132F"/>
</g>
<defs>
<clipPath id="clip0_906_62">
<rect width="228.462" height="45" fill="white"/>
</clipPath>
</defs>
</svg>
