<?xml version="1.0" encoding="utf-8"?>
<!-- Generator: Adobe Illustrator 26.4.1, SVG Export Plug-In . SVG Version: 6.00 Build 0)  -->
<svg version="1.1" id="Layer_1" xmlns="http://www.w3.org/2000/svg" xmlns:xlink="http://www.w3.org/1999/xlink" x="0px" y="0px"
	 width="16px" height="16px" viewBox="0 0 16 16" style="enable-background:new 0 0 16 16;" xml:space="preserve">
<path d="M12.7,7.2H5.1l3.4-3.4c0.3-0.3,0.3-0.8,0-1.1s-0.8-0.3-1.1,0L2.8,7.5C2.7,7.5,2.7,7.6,2.6,7.7c-0.1,0.2-0.1,0.4,0,0.6
	c0,0.1,0.1,0.2,0.2,0.2l4.7,4.7c0.1,0.1,0.3,0.2,0.5,0.2s0.4-0.1,0.5-0.2c0.3-0.3,0.3-0.8,0-1.1L5.1,8.8h7.5c0.4,0,0.8-0.3,0.8-0.8
	S13.1,7.2,12.7,7.2z"/>
</svg>
