<?xml version="1.0" encoding="utf-8"?>
<!-- Generator: Adobe Illustrator 26.4.1, SVG Export Plug-In . SVG Version: 6.00 Build 0)  -->
<svg version="1.1" id="Layer_1" xmlns="http://www.w3.org/2000/svg" xmlns:xlink="http://www.w3.org/1999/xlink" x="0px" y="0px"
	 width="16px" height="16px" viewBox="0 0 16 16" style="enable-background:new 0 0 16 16;" xml:space="preserve">
<path d="M13.5,8c0-0.3-0.1-0.5-0.3-0.6L8.6,2.8c-0.3-0.3-0.8-0.3-1.1,0s-0.3,0.8,0,1.1l3.3,3.3H3.4C2.9,7.2,2.6,7.6,2.6,8
	s0.3,0.8,0.7,0.8h7.5l-3.3,3.3c-0.3,0.3-0.3,0.8,0,1.1c0.1,0.1,0.3,0.2,0.5,0.2s0.4-0.1,0.6-0.2l4.6-4.6C13.4,8.5,13.5,8.3,13.5,8z"
	/>
</svg>
